<svg width="42" height="42" viewBox="0 0 42 42" fill="none" xmlns="http://www.w3.org/2000/svg">
<path d="M10.5 13.125C8.41355 13.1319 6.41453 13.9638 4.93918 15.4392C3.46383 16.9145 2.63192 18.9135 2.625 21C2.625 22.9031 3.02662 24.675 4.0425 26.1345C4.76175 27.1766 6.00075 27.7883 7.182 28.4445C7.19513 30.5183 7.16888 31.0275 5.53088 33.7549C4.4625 35.5346 6.5205 37.5427 8.274 36.4324C11.9963 34.0646 14.532 31.9462 16.1648 29.4499C17.7975 26.9587 18.375 24.171 18.375 21C18.3715 18.9125 17.5407 16.9115 16.0646 15.4354C14.5885 13.9593 12.5875 13.1285 10.5 13.125ZM31.5 13.125C29.4135 13.1319 27.4145 13.9638 25.9392 15.4392C24.4638 16.9145 23.6319 18.9135 23.625 21C23.625 22.9031 24.0266 24.675 25.0425 26.1345C25.7617 27.1766 27.0007 27.7883 28.182 28.4445C28.1951 30.5183 28.1715 31.0275 26.5309 33.7549C25.4625 35.5346 27.5205 37.5427 29.274 36.4324C32.9963 34.0646 35.532 31.9462 37.1647 29.4499C38.7975 26.9587 39.375 24.171 39.375 21C39.3715 18.9125 38.5407 16.9115 37.0646 15.4354C35.5885 13.9593 33.5875 13.1285 31.5 13.125Z" fill="black"/>
</svg>
