<svg width="48" height="48" viewBox="0 0 48 48" fill="none" xmlns="http://www.w3.org/2000/svg">
<path d="M21 16L29 24L21 32M6 10.8L6 37.2C6 38.473 6.50571 39.6939 7.40589 40.5941C8.30606 41.4943 9.52696 42 10.8 42L37.2 42C38.473 42 39.6939 41.4943 40.5941 40.5941C41.4943 39.6939 42 38.473 42 37.2L42 10.8C42 9.52696 41.4943 8.30606 40.5941 7.40589C39.6939 6.50571 38.473 6 37.2 6L10.8 6C10.1697 6 9.54548 6.12416 8.96312 6.36538C8.38076 6.6066 7.85161 6.96017 7.40589 7.40589C6.50571 8.30606 6 9.52696 6 10.8Z" stroke="#5A062A" stroke-width="1.5" stroke-linecap="round" stroke-linejoin="round"/>
</svg>
