<svg width="93" height="93" viewBox="0 0 93 93" fill="none" xmlns="http://www.w3.org/2000/svg">
<path d="M46.5001 1.86011C21.8458 1.86011 1.86011 21.8458 1.86011 46.5001C1.86011 71.1544 21.8458 91.1401 46.5001 91.1401C71.1544 91.1401 91.1401 71.1544 91.1401 46.5001C91.1401 21.8458 71.1544 1.86011 46.5001 1.86011ZM63.6679 52.2243C63.6679 52.2243 67.6158 56.121 68.5876 57.9298C68.6155 57.9701 68.6326 58.0011 68.6388 58.0228C69.0325 58.6831 69.1301 59.2055 68.9317 59.5899C68.6062 60.2316 67.4902 60.5478 67.1089 60.5757H60.1339C59.6503 60.5757 58.6366 60.4501 57.409 59.6038C56.4651 58.9435 55.5351 57.8601 54.6283 56.8045C53.2752 55.2328 52.1034 53.875 50.9223 53.875C50.7722 53.8744 50.6231 53.8979 50.4805 53.9448C49.5877 54.2331 48.4438 55.5072 48.4438 58.9017C48.4438 59.9619 47.6068 60.571 47.0163 60.571H43.8217C42.7336 60.571 37.0653 60.1897 32.0433 54.8934C25.896 48.4066 20.3625 35.3959 20.316 35.275C19.9672 34.4334 20.688 33.9823 21.4738 33.9823H28.5186C29.4579 33.9823 29.7648 34.5543 29.9787 35.0611C30.2298 35.6517 31.1505 37.9999 32.6617 40.6411C35.1123 44.947 36.6142 46.6954 37.8186 46.6954C38.0444 46.6927 38.2662 46.6353 38.4649 46.528C40.0366 45.6538 39.7437 40.0506 39.6739 38.8881C39.6739 38.6695 39.6693 36.3817 38.8648 35.2843C38.2882 34.4892 37.3071 34.1869 36.7119 34.0753C36.9528 33.7429 37.2702 33.4733 37.6372 33.2895C38.716 32.7501 40.6597 32.671 42.5895 32.671H43.6636C45.7561 32.6989 46.2955 32.8338 47.0535 33.0244C48.588 33.3918 48.6205 34.3822 48.4857 37.7721C48.4438 38.7346 48.402 39.8227 48.402 41.1061L48.388 41.9989C48.3415 43.7241 48.2857 45.6817 49.504 46.4862C49.6611 46.5898 49.846 46.6433 50.0341 46.6396C50.4573 46.6396 51.7314 46.6396 55.1817 40.7202C56.2418 38.8128 57.1663 36.8332 57.9484 34.7961C58.0182 34.6752 58.2228 34.3032 58.4646 34.159C58.6449 34.0733 58.8415 34.0273 59.0412 34.0242H67.3228C68.2249 34.0242 68.8434 34.159 68.9596 34.5078C69.1642 35.0611 68.9224 36.7491 65.142 41.8687L63.454 44.0961C60.027 48.588 60.027 48.8158 63.6679 52.2243Z" fill="#8D0B19"/>
</svg>
