<svg width="28" height="52" viewBox="0 0 28 52" fill="none" xmlns="http://www.w3.org/2000/svg">
<path d="M0.752452 4.38427C0.512094 4.1362 0.32419 3.84437 0.199464 3.52546C0.0747391 3.20656 0.0156354 2.86681 0.0255311 2.52563C0.0354268 2.18444 0.114127 1.8485 0.257137 1.53698C0.400147 1.22546 0.604667 0.94446 0.859019 0.710031C1.11337 0.475601 1.41258 0.29233 1.73955 0.170681C2.06652 0.0490324 2.41486 -0.00861224 2.76467 0.00103939C3.11448 0.010691 3.45892 0.0874495 3.77832 0.226932C4.09772 0.366415 4.38582 0.565891 4.62618 0.81397L27.2718 24.2002C27.7394 24.6827 28 25.3215 28 25.9854C28 26.6493 27.7394 27.2881 27.2718 27.7705L4.62618 51.1594C4.38741 51.4129 4.09937 51.6176 3.7788 51.7617C3.45822 51.9057 3.11151 51.9861 2.75878 51.9984C2.40606 52.0106 2.05436 51.9543 1.72412 51.8329C1.39387 51.7114 1.09167 51.5271 0.83505 51.2908C0.578434 51.0545 0.372523 50.7707 0.22928 50.4561C0.0860371 50.1415 0.0083164 49.8023 0.000631636 49.4581C-0.00705313 49.1139 0.0554506 48.7717 0.184514 48.4513C0.313578 48.1309 0.506629 47.8387 0.752452 47.5917L21.6716 25.9854L0.752452 4.38427Z" fill="#5A062A"/>
</svg>
