<svg width="50" height="50" viewBox="0 0 50 50" fill="none" xmlns="http://www.w3.org/2000/svg">
<path fill-rule="evenodd" clip-rule="evenodd" d="M27.889 42.0529C33.4294 35.5856 40.4338 27.4077 40.4338 20.053C40.4338 11.2696 33.4709 4.14703 24.8824 4.14703C16.2939 4.14703 9.33105 11.2696 9.33105 20.053C9.33105 27.4077 16.3354 35.5856 21.8758 42.0529C22.954 43.3136 23.9784 44.5059 24.8824 45.6173C25.7865 44.5059 26.8108 43.3136 27.889 42.0529ZM24.8824 24.8822C25.6312 24.8822 26.3727 24.7347 27.0645 24.4481C27.7563 24.1616 28.385 23.7415 28.9144 23.212C29.4439 22.6825 29.864 22.0539 30.1505 21.3621C30.4371 20.6703 30.5846 19.9288 30.5846 19.18C30.5846 18.4312 30.4371 17.6897 30.1505 16.9979C29.864 16.3061 29.4439 15.6775 28.9144 15.148C28.385 14.6185 27.7563 14.1985 27.0645 13.9119C26.3727 13.6253 25.6312 13.4778 24.8824 13.4778C23.3701 13.4778 21.9197 14.0786 20.8504 15.148C19.781 16.2173 19.1802 17.6677 19.1802 19.18C19.1802 20.6923 19.781 22.1427 20.8504 23.212C21.9197 24.2814 23.3701 24.8822 24.8824 24.8822Z" fill="#F9FED8"/>
</svg>
