<svg width="77" height="81" viewBox="0 0 77 81" fill="none" xmlns="http://www.w3.org/2000/svg">
<path fill-rule="evenodd" clip-rule="evenodd" d="M7.66667 0C5.63334 0 3.68329 0.816515 2.24551 2.26992C0.807736 3.72333 0 5.69457 0 7.75V62C0 64.0554 0.807736 66.0267 2.24551 67.4801C3.68329 68.9335 5.63334 69.75 7.66667 69.75H69C71.0333 69.75 72.9834 68.9335 74.4212 67.4801C75.8589 66.0267 76.6667 64.0554 76.6667 62V7.75C76.6667 5.69457 75.8589 3.72333 74.4212 2.26992C72.9834 0.816515 71.0333 0 69 0H7.66667ZM25.3958 21.8162C25.4809 21.0754 25.7361 20.3649 26.141 19.7415C26.5459 19.1181 27.0894 18.5989 27.728 18.2255C28.3667 17.8521 29.0828 17.6347 29.8193 17.5907C30.5558 17.5468 31.2923 17.6774 31.97 17.9722C33.902 18.8092 37.9807 20.6925 43.148 23.7073C46.7795 25.8053 50.2866 28.1162 53.6513 30.628C54.2429 31.073 54.7234 31.6516 55.0544 32.3177C55.3854 32.9838 55.5578 33.7188 55.5578 34.4642C55.5578 35.2097 55.3854 35.9447 55.0544 36.6108C54.7234 37.2769 54.2429 37.8555 53.6513 38.3005C50.2864 40.8097 46.7793 43.1179 43.148 45.2135C39.5359 47.3463 35.8035 49.2638 31.97 50.9562C31.2924 51.2519 30.5557 51.3833 29.8189 51.3397C29.0821 51.2961 28.3656 51.0788 27.7267 50.7053C27.0879 50.3317 26.5443 49.8122 26.1396 49.1883C25.7348 48.5644 25.4801 47.8535 25.3958 47.1123C24.9359 42.9124 24.7106 38.6897 24.7212 34.4642C24.7212 28.4541 25.1505 23.9281 25.3958 21.8162Z" fill="#8D0B19"/>
</svg>
