<svg width="48" height="48" viewBox="0 0 48 48" fill="none" xmlns="http://www.w3.org/2000/svg">
<path d="M27 16L19 24L27 32M42 10.8L42 37.2C42 38.473 41.4943 39.6939 40.5941 40.5941C39.6939 41.4943 38.473 42 37.2 42L10.8 42C9.52696 42 8.30606 41.4943 7.40589 40.5941C6.50572 39.6939 6 38.473 6 37.2L6 10.8C6 9.52696 6.50572 8.30606 7.40589 7.40589C8.30607 6.50571 9.52696 6 10.8 6L37.2 6C37.8303 6 38.4545 6.12416 39.0369 6.36538C39.6192 6.6066 40.1484 6.96017 40.5941 7.40589C41.4943 8.30606 42 9.52696 42 10.8Z" stroke="#5A062A" stroke-width="1.5" stroke-linecap="round" stroke-linejoin="round"/>
</svg>
