<svg width="43" height="43" viewBox="0 0 43 43" fill="none" xmlns="http://www.w3.org/2000/svg">
<path d="M21.5 3.58325C11.61 3.58325 3.58334 11.6099 3.58334 21.4999C3.58334 31.3899 11.61 39.4166 21.5 39.4166C31.39 39.4166 39.4167 31.3899 39.4167 21.4999C39.4167 11.6099 31.39 3.58325 21.5 3.58325ZM29.8133 15.7666C29.5446 18.5974 28.38 25.4774 27.7888 28.6487C27.5379 29.9924 27.0363 30.4403 26.5704 30.4941C25.5313 30.5837 24.7429 29.8133 23.7396 29.1503C22.1629 28.1112 21.2671 27.4662 19.7442 26.4628C17.9704 25.2983 19.1171 24.6533 20.1383 23.6141C20.4071 23.3453 24.9938 19.1708 25.0833 18.7945C25.0958 18.7375 25.0941 18.6784 25.0785 18.6221C25.0629 18.5659 25.0338 18.5144 24.9938 18.472C24.8863 18.3824 24.7429 18.4183 24.6175 18.4362C24.4563 18.472 21.9479 20.1383 17.0567 23.4349C16.34 23.9187 15.695 24.1695 15.1217 24.1516C14.4767 24.1337 13.2583 23.7933 12.3446 23.4887C11.2158 23.1303 10.3379 22.9333 10.4096 22.3062C10.4454 21.9837 10.8933 21.6612 11.7354 21.3208C16.9671 19.0453 20.4429 17.5403 22.1808 16.8237C27.1617 14.7453 28.1829 14.387 28.8638 14.387C29.0071 14.387 29.3475 14.4228 29.5625 14.602C29.7417 14.7453 29.7954 14.9424 29.8133 15.0858C29.7954 15.1933 29.8313 15.5158 29.8133 15.7666Z" fill="white"/>
</svg>
