<svg width="57" height="57" viewBox="0 0 57 57" fill="none" xmlns="http://www.w3.org/2000/svg">
<path d="M28.0833 55.1667C43.0415 55.1667 55.1667 43.0415 55.1667 28.0833C55.1667 13.1252 43.0415 1 28.0833 1C13.1252 1 1 13.1252 1 28.0833C1 43.0415 13.1252 55.1667 28.0833 55.1667Z" stroke="#8D0B19" stroke-width="2"/>
<path d="M28.0833 55.1667C43.0415 55.1667 55.1667 43.0415 55.1667 28.0833C55.1667 13.1252 43.0415 1 28.0833 1C13.1252 1 1 13.1252 1 28.0833C1 43.0415 13.1252 55.1667 28.0833 55.1667Z" stroke="#8D0B19" stroke-width="2" stroke-linejoin="round"/>
<path d="M40.2709 32.1458L28.0834 19.9583L15.8959 32.1458" stroke="#8D0B19" stroke-width="2" stroke-linecap="round" stroke-linejoin="round"/>
</svg>
