<svg width="38" height="38" viewBox="0 0 38 38" fill="none" xmlns="http://www.w3.org/2000/svg">
<path d="M19 0C8.50659 0 0 8.50659 0 19C0 29.4934 8.50659 38 19 38C29.4934 38 38 29.4934 38 19C38 8.50659 29.4934 0 19 0ZM12.1719 7.54712C12.5633 7.52403 12.9172 7.75802 13.1854 8.17333L15.7831 13.0996C16.0566 13.6833 15.9012 14.3084 15.4932 14.7254L14.3034 15.9153C14.2299 16.0159 14.1816 16.1292 14.1804 16.2539C14.6367 18.0201 16.0208 19.6493 17.242 20.7696C18.4631 21.89 19.7756 23.4069 21.4794 23.7662C21.69 23.825 21.9479 23.846 22.0986 23.706L23.481 22.2981C23.9581 21.9364 24.6484 21.7612 25.1578 22.0569H25.181L29.8683 24.8239C30.5564 25.2551 30.6277 26.0888 30.1351 26.5959L26.9066 29.7988C26.4299 30.2878 25.7965 30.4522 25.1811 30.4529C22.4594 30.3713 19.8877 29.0355 17.7754 27.6627C14.3083 25.1404 11.1279 22.0119 9.13124 18.2323C8.36548 16.6474 7.46592 14.6252 7.55177 12.8561C7.55943 12.1906 7.73949 11.5386 8.20816 11.1097L11.4367 7.88117C11.6882 7.66716 11.937 7.56099 12.1719 7.54712Z" fill="white"/>
</svg>
