<svg width="40" height="40" viewBox="0 0 40 40" fill="none" xmlns="http://www.w3.org/2000/svg">
<path d="M19.5459 0.781738C9.18267 0.781738 0.78186 9.18255 0.78186 19.5458C0.78186 29.909 9.18267 38.3098 19.5459 38.3098C29.9091 38.3098 38.3099 29.909 38.3099 19.5458C38.3099 9.18255 29.9091 0.781738 19.5459 0.781738ZM26.7622 21.9519C26.7622 21.9519 28.4217 23.5898 28.8302 24.3501C28.8419 24.3671 28.8491 24.3801 28.8517 24.3892C29.0172 24.6668 29.0582 24.8863 28.9748 25.0479C28.838 25.3177 28.3689 25.4506 28.2086 25.4623H25.2767C25.0735 25.4623 24.6474 25.4095 24.1313 25.0538C23.7346 24.7762 23.3437 24.3208 22.9625 23.8771C22.3937 23.2165 21.9012 22.6457 21.4047 22.6457C21.3416 22.6455 21.2789 22.6554 21.219 22.6751C20.8437 22.7962 20.3629 23.3318 20.3629 24.7586C20.3629 25.2043 20.0111 25.4603 19.7628 25.4603H18.42C17.9627 25.4603 15.58 25.3001 13.4691 23.0738C10.8851 20.3471 8.55916 14.8782 8.53961 14.8274C8.39302 14.4736 8.69598 14.284 9.02631 14.284H11.9875C12.3823 14.284 12.5113 14.5244 12.6012 14.7375C12.7068 14.9857 13.0938 15.9728 13.729 17.083C14.7591 18.8929 15.3904 19.6279 15.8967 19.6279C15.9916 19.6267 16.0848 19.6026 16.1684 19.5575C16.829 19.19 16.7059 16.8348 16.6766 16.3461C16.6766 16.2542 16.6746 15.2926 16.3365 14.8313C16.0941 14.4971 15.6817 14.37 15.4315 14.3231C15.5327 14.1834 15.6662 14.0701 15.8204 13.9928C16.2739 13.7661 17.0909 13.7328 17.9021 13.7328H18.3536C19.2332 13.7446 19.4599 13.8012 19.7785 13.8814C20.4235 14.0358 20.4372 14.4521 20.3805 15.877C20.3629 16.2816 20.3453 16.739 20.3453 17.2784L20.3395 17.6537C20.3199 18.3789 20.2965 19.2018 20.8086 19.5399C20.8746 19.5835 20.9523 19.6059 21.0314 19.6044C21.2092 19.6044 21.7448 19.6044 23.1951 17.1162C23.6407 16.3145 24.0293 15.4824 24.3581 14.6261C24.3874 14.5753 24.4734 14.4189 24.575 14.3583C24.6508 14.3223 24.7335 14.3029 24.8174 14.3016H28.2985C28.6777 14.3016 28.9377 14.3583 28.9865 14.5049C29.0725 14.7375 28.9709 15.447 27.3818 17.599L26.6723 18.5352C25.2318 20.4234 25.2318 20.5192 26.7622 21.9519Z" fill="white"/>
</svg>
