<svg width="33" height="34" viewBox="0 0 33 34" fill="none" xmlns="http://www.w3.org/2000/svg">
<path fill-rule="evenodd" clip-rule="evenodd" d="M3.25764 0C2.39366 0 1.56507 0.343215 0.954142 0.954142C0.343215 1.56507 0 2.39366 0 3.25764V26.0611C0 26.9251 0.343215 27.7537 0.954142 28.3647C1.56507 28.9756 2.39366 29.3188 3.25764 29.3188H29.3188C30.1828 29.3188 31.0114 28.9756 31.6223 28.3647C32.2332 27.7537 32.5764 26.9251 32.5764 26.0611V3.25764C32.5764 2.39366 32.2332 1.56507 31.6223 0.954142C31.0114 0.343215 30.1828 0 29.3188 0H3.25764ZM10.7909 9.17027C10.8271 8.85886 10.9355 8.56022 11.1076 8.29816C11.2796 8.0361 11.5106 7.81789 11.7819 7.66092C12.0533 7.50396 12.3576 7.41259 12.6705 7.39411C12.9835 7.37562 13.2964 7.43054 13.5844 7.55448C14.4053 7.9063 16.1384 8.69791 18.334 9.96513C19.8771 10.847 21.3673 11.8184 22.797 12.8742C23.0484 13.0613 23.2525 13.3045 23.3932 13.5845C23.5338 13.8644 23.6071 14.1734 23.6071 14.4867C23.6071 14.8001 23.5338 15.1091 23.3932 15.389C23.2525 15.669 23.0484 15.9122 22.797 16.0993C21.3672 17.154 19.877 18.1242 18.334 19.0051C16.7992 19.9016 15.2133 20.7076 13.5844 21.419C13.2964 21.5433 12.9834 21.5985 12.6704 21.5802C12.3573 21.5619 12.0528 21.4705 11.7814 21.3135C11.5099 21.1565 11.2789 20.9381 11.107 20.6759C10.935 20.4136 10.8268 20.1148 10.7909 19.8032C10.5955 18.0379 10.4998 16.2629 10.5043 14.4867C10.5043 11.9604 10.6867 10.058 10.7909 9.17027Z" fill="white"/>
</svg>
